# File created by Blade
# Date/Time:  Fri Jan 16 14:33:41 2015
# Frame Rate: 120.000 fps
#------------------------------------------------------
:FULLY-SPECIFIED
:DEGREES
2631
root 19.704905 35.664948 -23.993866 -173.878899 -2.954742 -178.781751
Spine -12.445710 -3.250846 0.090266
Head 1.429962 -12.231423 3.237150
LeftShoulder -6.870656 -13.667083 -9.665194
LeftArm -10.048047 27.785815 -72.057253
LeftForeArm 2.612542 -0.000000 7.715841
LeftHand -1.449383 -0.000000 -2.086597
LeftHandThumb1 -26.253704 0.000000 33.147579
RightShoulder -5.910858 -14.916034 -8.003341
RightArm 11.862083 -0.221444 6.857843
RightForeArm -13.792599 -0.000000 123.946238
RightHand -3.665341 -0.000000 -4.082301
RightHandThumb1 -24.326973 -0.000000 -32.862282
LeftUpLeg 0.951866 9.866127 1.947373
LeftLeg -4.652334 -0.000000 0.000000
LeftFoot -19.926637 25.525050 -14.022297
LeftToeBase 25.401603 -0.000000 -0.000000
RightUpLeg 1.023459 -13.260384 3.903900
RightLeg -4.041549 -0.000000 0.000000
RightFoot -20.310657 -23.236785 15.586400
RightToeBase 23.091892 -0.000000 -0.000000
2632
root 19.712858 35.664999 -23.993614 -173.795088 -2.970391 -178.778753
Spine -12.451927 -3.542971 0.037266
Head 1.287364 -12.047772 3.521549
LeftShoulder -7.098665 -13.671378 -9.498184
LeftArm -10.015223 27.573260 -72.048954
LeftForeArm 2.600293 -0.000000 7.782930
LeftHand -1.463086 -0.000000 -1.831118
LeftHandThumb1 -26.253704 0.000000 33.147579
RightShoulder -6.299224 -14.823819 -7.978271
RightArm 11.372424 0.303184 7.049247
RightForeArm -14.220165 -0.000000 124.131213
RightHand -3.917247 -0.000000 -4.045667
RightHandThumb1 -24.326973 -0.000000 -32.862282
LeftUpLeg 0.868082 9.861237 1.949623
LeftLeg -4.663938 -0.000000 0.000000
LeftFoot -19.899228 25.508487 -14.044568
LeftToeBase 25.318371 -0.000000 -0.000000
RightUpLeg 0.918843 -13.298449 3.942029
RightLeg -4.005205 -0.000000 0.000000
RightFoot -20.322388 -23.177641 15.606033
RightToeBase 23.045982 -0.000000 -0.000000
2633
root 19.720536 35.665412 -23.991425 -173.701147 -2.978090 -178.770702
Spine -12.487448 -3.825814 0.011465
Head 1.227151 -11.855939 3.731597
LeftShoulder -7.284374 -13.579475 -9.378043
LeftArm -9.920892 27.278351 -71.981112
LeftForeArm 2.643092 0.000000 7.864302
LeftHand -1.497841 0.000000 -1.767872
LeftHandThumb1 -26.253704 0.000000 33.147579
RightShoulder -6.671136 -14.827625 -7.884250
RightArm 10.809461 1.004565 7.138138
RightForeArm -14.237183 0.000000 124.306412
RightHand -4.062166 -0.000000 -4.162613
RightHandThumb1 -24.326973 -0.000000 -32.862282
LeftUpLeg 0.768260 9.818596 1.955023
LeftLeg -4.658556 -0.000000 0.000000
LeftFoot -19.917779 25.532953 -14.064580
LeftToeBase 25.349818 -0.000000 -0.000000
RightUpLeg 0.805815 -13.293883 3.986170
RightLeg -3.980267 -0.000000 0.000000
RightFoot -20.329103 -23.177934 15.601996
RightToeBase 23.036166 -0.000000 -0.000000
2634
root 19.729099 35.665214 -23.990216 -173.617106 -2.985892 -178.754639
Spine -12.523815 -4.078059 0.004521
Head 1.220741 -11.753965 3.829374
LeftShoulder -7.499386 -13.486028 -9.292572
LeftArm -9.753833 27.098112 -71.875817
LeftForeArm 2.635524 -0.000000 7.859849
LeftHand -1.473361 -0.000000 -1.726418
LeftHandThumb1 -26.253704 0.000000 33.147579
RightShoulder -7.111430 -14.847263 -7.846977
RightArm 10.443303 1.663647 7.329192
RightForeArm -14.301290 -0.000000 124.435252
RightHand -4.205403 -0.000000 -4.173699
RightHandThumb1 -24.326973 -0.000000 -32.862282
LeftUpLeg 0.684563 9.831617 1.972529
LeftLeg -4.674765 -0.000000 0.000000
LeftFoot -19.885392 25.520838 -14.033295
LeftToeBase 25.341179 -0.000000 -0.000000
RightUpLeg 0.729130 -13.216971 4.030772
RightLeg -3.996970 -0.000000 0.000000
RightFoot -20.345434 -23.253219 15.618113
RightToeBase 23.059323 -0.000000 -0.000000
2635
root 19.737316 35.665720 -23.987552 -173.515363 -2.993899 -178.741286
Spine -12.577490 -4.374528 -0.008185
Head 1.201893 -11.603680 3.990722
LeftShoulder -7.566372 -13.803240 -9.147091
LeftArm -10.254356 26.791888 -72.030132
LeftForeArm 2.705747 -0.000000 8.025875
LeftHand -1.503608 -0.000000 -1.598302
LeftHandThumb1 -26.253704 0.000000 33.147579
RightShoulder -7.384452 -14.731817 -7.874655
RightArm 9.895252 2.218185 7.610194
RightForeArm -14.339371 -0.000000 124.531207
RightHand -4.059031 -0.000000 -4.065921
RightHandThumb1 -24.326973 -0.000000 -32.862282
LeftUpLeg 0.573295 9.826472 1.982784
LeftLeg -4.672521 -0.000000 0.000000
LeftFoot -19.875592 25.514027 -14.027196
LeftToeBase 25.331110 -0.000000 -0.000000
RightUpLeg 0.621970 -13.168115 4.082311
RightLeg -3.996590 -0.000000 0.000000
RightFoot -20.360456 -23.296051 15.648121
RightToeBase 23.101556 -0.000000 -0.000000
